<mxfile host="app.diagrams.net" modified="2022-07-18T14:22:05.074Z" agent="5.0 (X11; Linux x86_64) AppleWebKit/537.36 (KHTML, like Gecko) Chrome/103.0.0.0 Safari/537.36" etag="1iWaMLuyv6cyv6xkYg_2" version="20.1.1" type="github">
  <diagram id="lTgyt2pMQajPeKR8Uzmh" name="Page-1">
    <mxGraphModel dx="1422" dy="800" grid="1" gridSize="10" guides="1" tooltips="1" connect="1" arrows="1" fold="1" page="1" pageScale="1" pageWidth="850" pageHeight="1100" math="0" shadow="0">
      <root>
        <mxCell id="0" />
        <mxCell id="1" parent="0" />
        <mxCell id="6mBeEqP1D3HvYm-OmFjo-25" style="edgeStyle=orthogonalEdgeStyle;rounded=0;orthogonalLoop=1;jettySize=auto;html=1;exitX=1;exitY=0.5;exitDx=0;exitDy=0;entryX=0;entryY=0.5;entryDx=0;entryDy=0;entryPerimeter=0;" edge="1" parent="1" source="6mBeEqP1D3HvYm-OmFjo-20" target="6mBeEqP1D3HvYm-OmFjo-5">
          <mxGeometry relative="1" as="geometry" />
        </mxCell>
        <mxCell id="6mBeEqP1D3HvYm-OmFjo-20" value="" style="rounded=0;whiteSpace=wrap;html=1;" vertex="1" parent="1">
          <mxGeometry x="360" y="200" width="80" height="160" as="geometry" />
        </mxCell>
        <mxCell id="6mBeEqP1D3HvYm-OmFjo-12" value="" style="rounded=0;whiteSpace=wrap;html=1;" vertex="1" parent="1">
          <mxGeometry x="685" y="154" width="120" height="60" as="geometry" />
        </mxCell>
        <mxCell id="6mBeEqP1D3HvYm-OmFjo-22" style="edgeStyle=orthogonalEdgeStyle;rounded=0;orthogonalLoop=1;jettySize=auto;html=1;exitX=0.92;exitY=0.5;exitDx=0;exitDy=0;exitPerimeter=0;" edge="1" parent="1" source="6mBeEqP1D3HvYm-OmFjo-1" target="6mBeEqP1D3HvYm-OmFjo-2">
          <mxGeometry relative="1" as="geometry" />
        </mxCell>
        <mxCell id="6mBeEqP1D3HvYm-OmFjo-1" value="" style="sketch=0;aspect=fixed;pointerEvents=1;shadow=0;dashed=0;html=1;strokeColor=none;labelPosition=center;verticalLabelPosition=bottom;verticalAlign=top;align=center;fillColor=#00188D;shape=mxgraph.mscae.enterprise.client_application" vertex="1" parent="1">
          <mxGeometry x="110" y="270" width="50" height="32" as="geometry" />
        </mxCell>
        <mxCell id="6mBeEqP1D3HvYm-OmFjo-23" style="edgeStyle=orthogonalEdgeStyle;rounded=0;orthogonalLoop=1;jettySize=auto;html=1;exitX=0.855;exitY=0.145;exitDx=0;exitDy=0;exitPerimeter=0;entryX=0;entryY=0.5;entryDx=0;entryDy=0;entryPerimeter=0;" edge="1" parent="1" source="6mBeEqP1D3HvYm-OmFjo-2" target="6mBeEqP1D3HvYm-OmFjo-7">
          <mxGeometry relative="1" as="geometry" />
        </mxCell>
        <mxCell id="6mBeEqP1D3HvYm-OmFjo-24" style="edgeStyle=orthogonalEdgeStyle;rounded=0;orthogonalLoop=1;jettySize=auto;html=1;exitX=0.855;exitY=0.855;exitDx=0;exitDy=0;exitPerimeter=0;entryX=0;entryY=0.5;entryDx=0;entryDy=0;entryPerimeter=0;" edge="1" parent="1" source="6mBeEqP1D3HvYm-OmFjo-2" target="6mBeEqP1D3HvYm-OmFjo-3">
          <mxGeometry relative="1" as="geometry" />
        </mxCell>
        <mxCell id="6mBeEqP1D3HvYm-OmFjo-2" value="" style="outlineConnect=0;dashed=0;verticalLabelPosition=bottom;verticalAlign=top;align=center;html=1;shape=mxgraph.aws3.classic_load_balancer;fillColor=#F58534;gradientColor=none;" vertex="1" parent="1">
          <mxGeometry x="240" y="250" width="69" height="72" as="geometry" />
        </mxCell>
        <mxCell id="6mBeEqP1D3HvYm-OmFjo-3" value="" style="sketch=0;aspect=fixed;pointerEvents=1;shadow=0;dashed=0;html=1;strokeColor=none;labelPosition=center;verticalLabelPosition=bottom;verticalAlign=top;align=center;fillColor=#00188D;shape=mxgraph.mscae.enterprise.application_server2" vertex="1" parent="1">
          <mxGeometry x="382" y="295" width="43" height="50" as="geometry" />
        </mxCell>
        <mxCell id="6mBeEqP1D3HvYm-OmFjo-28" style="edgeStyle=orthogonalEdgeStyle;rounded=0;orthogonalLoop=1;jettySize=auto;html=1;exitX=0.855;exitY=0.145;exitDx=0;exitDy=0;exitPerimeter=0;entryX=0;entryY=0.5;entryDx=0;entryDy=0;" edge="1" parent="1" source="6mBeEqP1D3HvYm-OmFjo-5" target="6mBeEqP1D3HvYm-OmFjo-12">
          <mxGeometry relative="1" as="geometry" />
        </mxCell>
        <mxCell id="6mBeEqP1D3HvYm-OmFjo-30" style="edgeStyle=orthogonalEdgeStyle;rounded=0;orthogonalLoop=1;jettySize=auto;html=1;exitX=0.855;exitY=0.855;exitDx=0;exitDy=0;exitPerimeter=0;entryX=0.017;entryY=0.588;entryDx=0;entryDy=0;entryPerimeter=0;" edge="1" parent="1" source="6mBeEqP1D3HvYm-OmFjo-5" target="6mBeEqP1D3HvYm-OmFjo-10">
          <mxGeometry relative="1" as="geometry" />
        </mxCell>
        <mxCell id="6mBeEqP1D3HvYm-OmFjo-5" value="" style="outlineConnect=0;dashed=0;verticalLabelPosition=bottom;verticalAlign=top;align=center;html=1;shape=mxgraph.aws3.classic_load_balancer;fillColor=#F58534;gradientColor=none;" vertex="1" parent="1">
          <mxGeometry x="520" y="244" width="69" height="72" as="geometry" />
        </mxCell>
        <mxCell id="6mBeEqP1D3HvYm-OmFjo-50" style="edgeStyle=orthogonalEdgeStyle;rounded=0;orthogonalLoop=1;jettySize=auto;html=1;exitX=0.02;exitY=0.01;exitDx=0;exitDy=0;exitPerimeter=0;" edge="1" parent="1" source="6mBeEqP1D3HvYm-OmFjo-6" target="6mBeEqP1D3HvYm-OmFjo-21">
          <mxGeometry relative="1" as="geometry" />
        </mxCell>
        <mxCell id="6mBeEqP1D3HvYm-OmFjo-6" value="" style="sketch=0;aspect=fixed;pointerEvents=1;shadow=0;dashed=0;html=1;strokeColor=none;labelPosition=center;verticalLabelPosition=bottom;verticalAlign=top;align=center;fillColor=#00188D;shape=mxgraph.mscae.enterprise.application_server2" vertex="1" parent="1">
          <mxGeometry x="380" y="455" width="43" height="50" as="geometry" />
        </mxCell>
        <mxCell id="6mBeEqP1D3HvYm-OmFjo-7" value="" style="sketch=0;aspect=fixed;pointerEvents=1;shadow=0;dashed=0;html=1;strokeColor=none;labelPosition=center;verticalLabelPosition=bottom;verticalAlign=top;align=center;fillColor=#00188D;shape=mxgraph.mscae.enterprise.application_server2" vertex="1" parent="1">
          <mxGeometry x="380" y="215" width="43" height="50" as="geometry" />
        </mxCell>
        <mxCell id="6mBeEqP1D3HvYm-OmFjo-8" value="" style="sketch=0;aspect=fixed;pointerEvents=1;shadow=0;dashed=0;html=1;strokeColor=none;labelPosition=center;verticalLabelPosition=bottom;verticalAlign=top;align=center;fillColor=#00188D;shape=mxgraph.mscae.enterprise.application_server2" vertex="1" parent="1">
          <mxGeometry x="705" y="159" width="43" height="50" as="geometry" />
        </mxCell>
        <mxCell id="6mBeEqP1D3HvYm-OmFjo-9" value="" style="sketch=0;aspect=fixed;pointerEvents=1;shadow=0;dashed=0;html=1;strokeColor=none;labelPosition=center;verticalLabelPosition=bottom;verticalAlign=top;align=center;fillColor=#00188D;shape=mxgraph.mscae.enterprise.application_server2" vertex="1" parent="1">
          <mxGeometry x="755" y="159" width="43" height="50" as="geometry" />
        </mxCell>
        <mxCell id="6mBeEqP1D3HvYm-OmFjo-10" value="" style="shape=cylinder3;whiteSpace=wrap;html=1;boundedLbl=1;backgroundOutline=1;size=15;" vertex="1" parent="1">
          <mxGeometry x="700" y="280" width="60" height="80" as="geometry" />
        </mxCell>
        <mxCell id="6mBeEqP1D3HvYm-OmFjo-31" style="edgeStyle=orthogonalEdgeStyle;rounded=0;orthogonalLoop=1;jettySize=auto;html=1;exitX=0.5;exitY=0;exitDx=0;exitDy=0;exitPerimeter=0;" edge="1" parent="1" source="6mBeEqP1D3HvYm-OmFjo-11" target="6mBeEqP1D3HvYm-OmFjo-13">
          <mxGeometry relative="1" as="geometry" />
        </mxCell>
        <mxCell id="6mBeEqP1D3HvYm-OmFjo-11" value="Database Servers" style="shape=cylinder3;whiteSpace=wrap;html=1;boundedLbl=1;backgroundOutline=1;size=15;" vertex="1" parent="1">
          <mxGeometry x="720" y="280" width="60" height="80" as="geometry" />
        </mxCell>
        <mxCell id="6mBeEqP1D3HvYm-OmFjo-13" value="Cache Servers" style="text;html=1;strokeColor=none;fillColor=none;align=center;verticalAlign=middle;whiteSpace=wrap;rounded=0;" vertex="1" parent="1">
          <mxGeometry x="695" y="214" width="110" height="30" as="geometry" />
        </mxCell>
        <mxCell id="6mBeEqP1D3HvYm-OmFjo-32" style="edgeStyle=orthogonalEdgeStyle;rounded=0;orthogonalLoop=1;jettySize=auto;html=1;exitX=0.5;exitY=0;exitDx=0;exitDy=0;entryX=0.367;entryY=1.038;entryDx=0;entryDy=0;entryPerimeter=0;" edge="1" parent="1" source="6mBeEqP1D3HvYm-OmFjo-14" target="6mBeEqP1D3HvYm-OmFjo-11">
          <mxGeometry relative="1" as="geometry" />
        </mxCell>
        <mxCell id="6mBeEqP1D3HvYm-OmFjo-33" style="edgeStyle=orthogonalEdgeStyle;rounded=0;orthogonalLoop=1;jettySize=auto;html=1;exitX=0;exitY=0.5;exitDx=0;exitDy=0;" edge="1" parent="1" source="6mBeEqP1D3HvYm-OmFjo-14" target="6mBeEqP1D3HvYm-OmFjo-18">
          <mxGeometry relative="1" as="geometry" />
        </mxCell>
        <mxCell id="6mBeEqP1D3HvYm-OmFjo-14" value="" style="rounded=0;whiteSpace=wrap;html=1;" vertex="1" parent="1">
          <mxGeometry x="678" y="625" width="120" height="60" as="geometry" />
        </mxCell>
        <mxCell id="6mBeEqP1D3HvYm-OmFjo-15" value="" style="sketch=0;aspect=fixed;pointerEvents=1;shadow=0;dashed=0;html=1;strokeColor=none;labelPosition=center;verticalLabelPosition=bottom;verticalAlign=top;align=center;fillColor=#00188D;shape=mxgraph.mscae.enterprise.application_server2" vertex="1" parent="1">
          <mxGeometry x="698" y="630" width="43" height="50" as="geometry" />
        </mxCell>
        <mxCell id="6mBeEqP1D3HvYm-OmFjo-16" value="" style="sketch=0;aspect=fixed;pointerEvents=1;shadow=0;dashed=0;html=1;strokeColor=none;labelPosition=center;verticalLabelPosition=bottom;verticalAlign=top;align=center;fillColor=#00188D;shape=mxgraph.mscae.enterprise.application_server2" vertex="1" parent="1">
          <mxGeometry x="748" y="630" width="43" height="50" as="geometry" />
        </mxCell>
        <mxCell id="6mBeEqP1D3HvYm-OmFjo-17" value="Cleanup Service" style="text;html=1;strokeColor=none;fillColor=none;align=center;verticalAlign=middle;whiteSpace=wrap;rounded=0;" vertex="1" parent="1">
          <mxGeometry x="688" y="685" width="110" height="30" as="geometry" />
        </mxCell>
        <mxCell id="6mBeEqP1D3HvYm-OmFjo-36" style="edgeStyle=orthogonalEdgeStyle;rounded=0;orthogonalLoop=1;jettySize=auto;html=1;exitX=0;exitY=0.5;exitDx=0;exitDy=0;exitPerimeter=0;entryX=1;entryY=0.5;entryDx=0;entryDy=0;entryPerimeter=0;" edge="1" parent="1" source="6mBeEqP1D3HvYm-OmFjo-18" target="6mBeEqP1D3HvYm-OmFjo-19">
          <mxGeometry relative="1" as="geometry" />
        </mxCell>
        <mxCell id="6mBeEqP1D3HvYm-OmFjo-18" value="" style="shape=cylinder3;whiteSpace=wrap;html=1;boundedLbl=1;backgroundOutline=1;size=15;" vertex="1" parent="1">
          <mxGeometry x="363" y="615" width="60" height="80" as="geometry" />
        </mxCell>
        <mxCell id="6mBeEqP1D3HvYm-OmFjo-19" value="" style="shape=cylinder3;whiteSpace=wrap;html=1;boundedLbl=1;backgroundOutline=1;size=15;" vertex="1" parent="1">
          <mxGeometry x="210" y="615" width="60" height="80" as="geometry" />
        </mxCell>
        <mxCell id="6mBeEqP1D3HvYm-OmFjo-21" value="Application Servers" style="text;html=1;strokeColor=none;fillColor=none;align=center;verticalAlign=middle;whiteSpace=wrap;rounded=0;" vertex="1" parent="1">
          <mxGeometry x="370" y="360" width="60" height="30" as="geometry" />
        </mxCell>
        <mxCell id="6mBeEqP1D3HvYm-OmFjo-26" value="Load Balancers" style="text;html=1;strokeColor=none;fillColor=none;align=center;verticalAlign=middle;whiteSpace=wrap;rounded=0;" vertex="1" parent="1">
          <mxGeometry x="249" y="322" width="60" height="30" as="geometry" />
        </mxCell>
        <mxCell id="6mBeEqP1D3HvYm-OmFjo-27" value="Load Balancers" style="text;html=1;strokeColor=none;fillColor=none;align=center;verticalAlign=middle;whiteSpace=wrap;rounded=0;" vertex="1" parent="1">
          <mxGeometry x="524.5" y="322" width="60" height="30" as="geometry" />
        </mxCell>
        <mxCell id="6mBeEqP1D3HvYm-OmFjo-34" value="Key-DB" style="text;html=1;strokeColor=none;fillColor=none;align=center;verticalAlign=middle;whiteSpace=wrap;rounded=0;" vertex="1" parent="1">
          <mxGeometry x="365" y="705" width="60" height="30" as="geometry" />
        </mxCell>
        <mxCell id="6mBeEqP1D3HvYm-OmFjo-35" value="Key-DB (Standby)" style="text;html=1;strokeColor=none;fillColor=none;align=center;verticalAlign=middle;whiteSpace=wrap;rounded=0;" vertex="1" parent="1">
          <mxGeometry x="210" y="705" width="60" height="30" as="geometry" />
        </mxCell>
        <mxCell id="6mBeEqP1D3HvYm-OmFjo-51" style="edgeStyle=orthogonalEdgeStyle;rounded=0;orthogonalLoop=1;jettySize=auto;html=1;exitX=0.5;exitY=1;exitDx=0;exitDy=0;entryX=0.5;entryY=0;entryDx=0;entryDy=0;entryPerimeter=0;" edge="1" parent="1" source="6mBeEqP1D3HvYm-OmFjo-37" target="6mBeEqP1D3HvYm-OmFjo-18">
          <mxGeometry relative="1" as="geometry" />
        </mxCell>
        <mxCell id="6mBeEqP1D3HvYm-OmFjo-37" value="Key Generation Service&lt;br&gt;" style="text;html=1;strokeColor=none;fillColor=none;align=center;verticalAlign=middle;whiteSpace=wrap;rounded=0;" vertex="1" parent="1">
          <mxGeometry x="365" y="520" width="60" height="30" as="geometry" />
        </mxCell>
        <mxCell id="6mBeEqP1D3HvYm-OmFjo-52" value="&lt;h1&gt;Detailed component design for URL shortening&lt;/h1&gt;" style="text;html=1;strokeColor=none;fillColor=none;spacing=5;spacingTop=-20;whiteSpace=wrap;overflow=hidden;rounded=0;" vertex="1" parent="1">
          <mxGeometry x="160" y="10" width="620" height="120" as="geometry" />
        </mxCell>
      </root>
    </mxGraphModel>
  </diagram>
</mxfile>
